M48
;GenerationSoftware,Autodesk,EAGLE,9.6.2*%
;CreationDate,2021-02-13T02:05:54Z*%
FMAT,2
ICI,OFF
METRIC,TZ,000.000
T4C0.350
T3C1.016
T2C1.400
T1C4.000
%
G90
M71
T1
X39930Y28312
X-3075Y28312
T2
X25677Y29444
X11177Y29444
X10578Y34394
X26277Y34394
T3
X22542Y-11906
X12382Y-11906
X14922Y-11906
X17463Y-11906
X20003Y-11906
T4
X17939Y13557
X7937Y13875
X10478Y15304
X23336Y30321
X20955Y13716
X17145Y13557
X15962Y20796
X19463Y20796
X24447Y16510
X18733Y13557
X20161Y13716
X22860Y13716
X25241Y14192
X23495Y11112
X14922Y13557
X13335Y13557
X11271Y13240
X13335Y8001
X19676Y5707
X16192Y5303
X14446Y1492
X23654Y2921
X23654Y4350
X23654Y5303
X23654Y7366
X23654Y8319
X26670Y12287
X3492Y-12859
X3492Y-10478
X318Y-10160
X-2064Y-2064
X-2540Y-635
X-4921Y-476
X-1571Y-10135
X17463Y7461
X12462Y17304
X13811Y17368
X10319Y26892
X8414Y30385
X15875Y34354
X21590Y34513
X30797Y33909
X40958Y35148
X36036Y32290
X35084Y29591
X29686Y29909
X25241Y25940
X37624Y24035
X42545Y23876
X1587Y34195
X-3810Y34354
X1905Y31179
X635Y25781
X17621Y1492
X19209Y1492
X20796Y1492
X12304Y1334
X31750Y20701
X31909Y17685
X31909Y16256
X2699Y-6667
X21273Y-8414
X24289Y-13494
X8731Y21019
X6350Y19908
X7302Y23717
X5398Y23717
X6032Y26575
X22962Y24606
X26670Y2762
X26670Y3715
X26670Y4826
X10440Y-1150
X36663Y12047
X6401Y14089
X15291Y11390
X11430Y5461
X11430Y7207
X11430Y8954
X29365Y-318
X30766Y-318
X26511Y-635
X24447Y-635
X15875Y1587
X14446Y-1587
X16510Y-1587
X18415Y-1587
X20320Y-1587
X13652Y-3651
X13652Y5461
X17761Y22867
X17711Y24767
X17761Y17468
X21161Y24717
X21161Y23267
X34853Y7341
X30916Y7341
X29365Y1270
X30762Y1270
X31905Y1270
X25559Y-13494
X21114Y-4763
X21114Y-3651
X22500Y8500
X23114Y1270
X1270Y14224
X1270Y13208
X1270Y2286
X1270Y1270
X34853Y5817
X34853Y4039
X33647Y2642
X34853Y1563
X36568Y4039
X36568Y5817
X36568Y7341
X23495Y11970
X24289Y14827
X4768Y14446
X3969Y-4436
X32544Y13970
X18458Y-7642
X14605Y11970
X2193Y0
X32861Y31909
X7612Y12284
X22384Y5874
X12700Y-7039
X20320Y-5556
X8284Y-6302
X11430Y3175
X12065Y-6457
X19195Y-5253
X9239Y-4287
X12237Y3285
X10160Y-9652
X15240Y-4921
X21590Y21431
X12065Y12065
X25717Y22397
X22453Y21376
X12290Y11020
X12017Y13827
X28257Y476
X11271Y-1905
X23495Y20796
X26352Y25082
X-3016Y-4763
X3048Y13208
X20903Y-7642
X24606Y-5341
X8149Y4048
X22479Y2286
X7702Y1797
X23582Y1944
X12065Y-7620
X12817Y2724
X8255Y-7620
X22384Y-9366
X5556Y-9684
X25717Y-8255
X3810Y-1524
X3810Y22098
X25717Y21590
M30