G04 EAGLE Gerber RS-274X export*
G75*
%MOMM*%
%FSLAX34Y34*%
%LPD*%
%IN*%
%IPPOS*%
%AMOC8*
5,1,8,0,0,1.08239X$1,22.5*%
G01*
%ADD10C,0.254000*%


D10*
X-76200Y247975D02*
X-76162Y247103D01*
X-76048Y246239D01*
X-75859Y245387D01*
X-75597Y244555D01*
X-75263Y243749D01*
X-74860Y242975D01*
X-74392Y242239D01*
X-73860Y241547D01*
X-73271Y240904D01*
X-72628Y240315D01*
X-71936Y239783D01*
X-71200Y239315D01*
X-70426Y238912D01*
X-69620Y238578D01*
X-68788Y238316D01*
X-67936Y238127D01*
X-67072Y238013D01*
X-66200Y237975D01*
X-7760Y237975D01*
X-6888Y237937D01*
X-6024Y237823D01*
X-5172Y237634D01*
X-4340Y237372D01*
X-3534Y237038D01*
X-2760Y236635D01*
X-2024Y236167D01*
X-1332Y235635D01*
X-689Y235046D01*
X-100Y234403D01*
X432Y233711D01*
X900Y232975D01*
X1303Y232201D01*
X1637Y231395D01*
X1899Y230563D01*
X2088Y229711D01*
X2202Y228847D01*
X2240Y227975D01*
X2240Y4763D01*
X-56675Y4763D01*
X-57547Y4724D01*
X-58412Y4611D01*
X-59263Y4422D01*
X-60095Y4159D01*
X-60901Y3826D01*
X-61675Y3423D01*
X-62411Y2954D01*
X-63103Y2423D01*
X-63746Y1834D01*
X-64335Y1190D01*
X-64867Y498D01*
X-65335Y-238D01*
X-65738Y-1011D01*
X-66072Y-1817D01*
X-66334Y-2649D01*
X-66523Y-3501D01*
X-66637Y-4366D01*
X-66675Y-5238D01*
X-66675Y-134463D01*
X-66637Y-135334D01*
X-66523Y-136199D01*
X-66334Y-137051D01*
X-66072Y-137883D01*
X-65738Y-138689D01*
X-65335Y-139463D01*
X-64867Y-140198D01*
X-64335Y-140890D01*
X-63746Y-141534D01*
X-63103Y-142123D01*
X-62411Y-142654D01*
X-61675Y-143123D01*
X-60901Y-143526D01*
X-60095Y-143859D01*
X-59263Y-144122D01*
X-58411Y-144311D01*
X-57547Y-144424D01*
X-56675Y-144463D01*
X256700Y-144463D01*
X257572Y-144424D01*
X258436Y-144311D01*
X259288Y-144122D01*
X260120Y-143859D01*
X260926Y-143526D01*
X261700Y-143123D01*
X262436Y-142654D01*
X263128Y-142123D01*
X263771Y-141534D01*
X264360Y-140890D01*
X264892Y-140198D01*
X265360Y-139463D01*
X265763Y-138689D01*
X266097Y-137883D01*
X266359Y-137051D01*
X266548Y-136199D01*
X266662Y-135334D01*
X266700Y-134463D01*
X266700Y-49850D01*
X266814Y-47235D01*
X267156Y-44641D01*
X267722Y-42085D01*
X268509Y-39589D01*
X269511Y-37171D01*
X270719Y-34850D01*
X272125Y-32643D01*
X273719Y-30566D01*
X275487Y-28637D01*
X277416Y-26869D01*
X279493Y-25275D01*
X281700Y-23869D01*
X284021Y-22661D01*
X286439Y-21659D01*
X288935Y-20872D01*
X291491Y-20306D01*
X294085Y-19964D01*
X296700Y-19850D01*
X371000Y-19850D01*
X371872Y-19812D01*
X372736Y-19698D01*
X373588Y-19509D01*
X374420Y-19247D01*
X375226Y-18913D01*
X376000Y-18510D01*
X376736Y-18042D01*
X377428Y-17510D01*
X378071Y-16921D01*
X378660Y-16278D01*
X379192Y-15586D01*
X379660Y-14850D01*
X380063Y-14076D01*
X380397Y-13270D01*
X380659Y-12438D01*
X380848Y-11586D01*
X380962Y-10722D01*
X381000Y-9850D01*
X381000Y218600D01*
X381038Y219472D01*
X381152Y220336D01*
X381341Y221188D01*
X381603Y222020D01*
X381937Y222826D01*
X382340Y223600D01*
X382808Y224336D01*
X383340Y225028D01*
X383929Y225671D01*
X384572Y226260D01*
X385264Y226792D01*
X386000Y227260D01*
X386774Y227663D01*
X387580Y227997D01*
X388412Y228259D01*
X389264Y228448D01*
X390128Y228562D01*
X391000Y228600D01*
X434300Y228600D01*
X435172Y228638D01*
X436036Y228752D01*
X436888Y228941D01*
X437720Y229203D01*
X438526Y229537D01*
X439300Y229940D01*
X440036Y230408D01*
X440728Y230940D01*
X441371Y231529D01*
X441960Y232172D01*
X442492Y232864D01*
X442960Y233600D01*
X443363Y234374D01*
X443697Y235180D01*
X443959Y236012D01*
X444148Y236864D01*
X444262Y237728D01*
X444300Y238600D01*
X444300Y335050D01*
X444186Y337665D01*
X443844Y340259D01*
X443278Y342815D01*
X442491Y345311D01*
X441489Y347729D01*
X440281Y350050D01*
X438875Y352257D01*
X437281Y354334D01*
X435513Y356263D01*
X433584Y358031D01*
X431507Y359625D01*
X429300Y361031D01*
X426979Y362239D01*
X424561Y363241D01*
X422065Y364028D01*
X419509Y364594D01*
X416915Y364936D01*
X414300Y365050D01*
X-46200Y365050D01*
X-48815Y364936D01*
X-51409Y364594D01*
X-53965Y364028D01*
X-56461Y363241D01*
X-58879Y362239D01*
X-61200Y361031D01*
X-63407Y359625D01*
X-65484Y358031D01*
X-67413Y356263D01*
X-69181Y354334D01*
X-70775Y352257D01*
X-72181Y350050D01*
X-73389Y347729D01*
X-74391Y345311D01*
X-75178Y342815D01*
X-75744Y340259D01*
X-76086Y337665D01*
X-76200Y335050D01*
X-76200Y247975D01*
M02*
