G04 EAGLE Gerber RS-274X export*
G75*
%MOMM*%
%FSLAX34Y34*%
%LPD*%
%INSolderpaste Top*%
%IPPOS*%
%AMOC8*
5,1,8,0,0,1.08239X$1,22.5*%
G01*
%ADD10R,1.800000X1.600000*%
%ADD11R,1.100000X1.000000*%
%ADD12R,1.000000X1.100000*%
%ADD13R,1.951900X0.340000*%
%ADD14R,0.340000X1.951900*%
%ADD15R,1.600000X1.800000*%
%ADD16R,0.300000X2.500000*%
%ADD17R,2.540000X1.270000*%
%ADD18R,0.609200X1.217200*%
%ADD19R,1.087100X1.166300*%
%ADD20R,0.446800X1.858800*%
%ADD21R,1.270000X2.540000*%
%ADD22R,0.200000X1.005000*%
%ADD23R,0.400000X1.005000*%
%ADD24R,1.600000X3.000000*%
%ADD25R,1.559300X0.649200*%
%ADD26R,1.200000X0.300000*%
%ADD27R,1.400000X2.000000*%
%ADD28R,0.800000X0.800000*%
%ADD29R,0.800000X0.280000*%


D10*
X342900Y205075D03*
X342900Y233075D03*
D11*
X277250Y149863D03*
X294250Y149863D03*
D12*
X159625Y177238D03*
X159625Y194238D03*
X194625Y177238D03*
X194625Y194238D03*
X219625Y177238D03*
X219625Y194238D03*
D11*
X277250Y170500D03*
X294250Y170500D03*
X246063Y194238D03*
X246063Y177238D03*
D12*
X72000Y-42700D03*
X55000Y-42700D03*
X72000Y-63338D03*
X55000Y-63338D03*
X72000Y-83975D03*
X55000Y-83975D03*
D13*
X251442Y15250D03*
X251442Y20250D03*
X251442Y25250D03*
X251442Y30250D03*
X251442Y35250D03*
X251442Y40250D03*
X251442Y45250D03*
X251442Y50250D03*
X251442Y55250D03*
X251442Y60250D03*
X251442Y65250D03*
X251442Y70250D03*
X251442Y75250D03*
X251442Y80250D03*
X251442Y85250D03*
X251442Y90250D03*
X251442Y95250D03*
X251442Y100250D03*
X251442Y105250D03*
X251442Y110250D03*
X251442Y115250D03*
X251442Y120250D03*
X251442Y125250D03*
X251442Y130250D03*
X251442Y135250D03*
D14*
X234625Y152067D03*
X229625Y152067D03*
X224625Y152067D03*
X219625Y152067D03*
X214625Y152067D03*
X209625Y152067D03*
X204625Y152067D03*
X199625Y152067D03*
X194625Y152067D03*
X189625Y152067D03*
X184625Y152067D03*
X179625Y152067D03*
X174625Y152067D03*
X169625Y152067D03*
X164625Y152067D03*
X159625Y152067D03*
X154625Y152067D03*
X149625Y152067D03*
X144625Y152067D03*
X139625Y152067D03*
X134625Y152067D03*
X129625Y152067D03*
X124625Y152067D03*
X119625Y152067D03*
X114625Y152067D03*
D13*
X97808Y135250D03*
X97808Y130250D03*
X97808Y125250D03*
X97808Y120250D03*
X97808Y115250D03*
X97808Y110250D03*
X97808Y105250D03*
X97808Y100250D03*
X97808Y95250D03*
X97808Y90250D03*
X97808Y85250D03*
X97808Y80250D03*
X97808Y75250D03*
X97808Y70250D03*
X97808Y65250D03*
X97808Y60250D03*
X97808Y55250D03*
X97808Y50250D03*
X97808Y45250D03*
X97808Y40250D03*
X97808Y35250D03*
X97808Y30250D03*
X97808Y25250D03*
X97808Y20250D03*
X97808Y15250D03*
D14*
X114625Y-1567D03*
X119625Y-1567D03*
X124625Y-1567D03*
X129625Y-1567D03*
X134625Y-1567D03*
X139625Y-1567D03*
X144625Y-1567D03*
X149625Y-1567D03*
X154625Y-1567D03*
X159625Y-1567D03*
X164625Y-1567D03*
X169625Y-1567D03*
X174625Y-1567D03*
X179625Y-1567D03*
X184625Y-1567D03*
X189625Y-1567D03*
X194625Y-1567D03*
X199625Y-1567D03*
X204625Y-1567D03*
X209625Y-1567D03*
X214625Y-1567D03*
X219625Y-1567D03*
X224625Y-1567D03*
X229625Y-1567D03*
X234625Y-1567D03*
D10*
X77788Y182275D03*
X77788Y154275D03*
D12*
X282575Y28013D03*
X282575Y45013D03*
D11*
X122800Y192088D03*
X105800Y192088D03*
X277250Y86363D03*
X294250Y86363D03*
D15*
X281275Y108588D03*
X309275Y108588D03*
D11*
X277250Y129225D03*
X294250Y129225D03*
X277250Y191138D03*
X294250Y191138D03*
D15*
X125125Y234950D03*
X97125Y234950D03*
D11*
X122800Y212725D03*
X105800Y212725D03*
D16*
X139275Y281940D03*
X144275Y281940D03*
X149275Y281940D03*
X154275Y281940D03*
X159275Y281940D03*
X164275Y281940D03*
X169275Y281940D03*
X174275Y281940D03*
X179275Y281940D03*
X184275Y281940D03*
X189275Y281940D03*
X194275Y281940D03*
X199275Y281940D03*
X204275Y281940D03*
X209275Y281940D03*
X214275Y281940D03*
X219275Y281940D03*
X224275Y281940D03*
X229275Y281940D03*
D12*
X277250Y217488D03*
X294250Y217488D03*
X277250Y239713D03*
X294250Y239713D03*
X303775Y318294D03*
X286775Y318294D03*
D17*
X-46038Y-28575D03*
D10*
X-42863Y-86013D03*
X-42863Y-114013D03*
D18*
X22200Y-27173D03*
X12700Y-27173D03*
X3200Y-27173D03*
X3200Y-52203D03*
X12700Y-52203D03*
X22200Y-52203D03*
D17*
X-46038Y-60325D03*
D19*
X342900Y186404D03*
X342900Y169196D03*
X50800Y173704D03*
X50800Y156496D03*
X342900Y134271D03*
X342900Y151479D03*
D20*
X203875Y-31042D03*
X197375Y-31042D03*
X190875Y-31042D03*
X184375Y-31042D03*
X177875Y-31042D03*
X171375Y-31042D03*
X164875Y-31042D03*
X158375Y-31042D03*
X151875Y-31042D03*
X145375Y-31042D03*
X145375Y-89608D03*
X151875Y-89608D03*
X158375Y-89608D03*
X164875Y-89608D03*
X171375Y-89608D03*
X177875Y-89608D03*
X184375Y-89608D03*
X190875Y-89608D03*
X197375Y-89608D03*
X203875Y-89608D03*
D11*
X223838Y-38713D03*
X223838Y-21713D03*
D12*
X224000Y-70350D03*
X224000Y-53350D03*
D11*
X246063Y-21663D03*
X246063Y-38663D03*
D21*
X50000Y-119188D03*
X67000Y-119188D03*
X84000Y-118938D03*
X101000Y-119088D03*
D22*
X149625Y222480D03*
X154625Y222480D03*
D23*
X159625Y222480D03*
D22*
X164625Y222480D03*
X169625Y222480D03*
X169625Y234720D03*
X164625Y234720D03*
D23*
X159625Y234720D03*
D22*
X154625Y234720D03*
X149625Y234720D03*
X219625Y222480D03*
X224625Y222480D03*
D23*
X229625Y222480D03*
D22*
X234625Y222480D03*
X239625Y222480D03*
X239625Y234720D03*
X234625Y234720D03*
D23*
X229625Y234720D03*
D22*
X224625Y234720D03*
X219625Y234720D03*
X184625Y222480D03*
X189625Y222480D03*
D23*
X194625Y222480D03*
D22*
X199625Y222480D03*
X204625Y222480D03*
X204625Y234720D03*
X199625Y234720D03*
D23*
X194625Y234720D03*
D22*
X189625Y234720D03*
X184625Y234720D03*
D12*
X129150Y-25400D03*
X112150Y-25400D03*
D24*
X3175Y-79600D03*
X3175Y-123600D03*
D25*
X315993Y257200D03*
X315993Y266700D03*
X315993Y276200D03*
X290433Y276200D03*
X290433Y257200D03*
D12*
X342900Y272025D03*
X342900Y255025D03*
X111913Y-46038D03*
X128913Y-46038D03*
D19*
X-19050Y-60992D03*
X-19050Y-43784D03*
D26*
X39478Y125250D03*
X39478Y120250D03*
X39478Y115250D03*
X39478Y110250D03*
X39478Y105250D03*
X39478Y100250D03*
X39478Y95250D03*
X39478Y90250D03*
X39478Y85250D03*
X39478Y80250D03*
X39478Y75250D03*
X39478Y70250D03*
X39478Y65250D03*
X39478Y60250D03*
X39478Y55250D03*
X39478Y50250D03*
X39478Y45250D03*
X39478Y40250D03*
D27*
X14478Y136560D03*
X14478Y18940D03*
D26*
X39478Y35250D03*
X39478Y30250D03*
D17*
X356920Y94130D03*
D28*
X250825Y-123388D03*
X250825Y-108388D03*
D11*
X246063Y-70413D03*
X246063Y-53413D03*
D29*
X72390Y96640D03*
X72390Y101640D03*
X72390Y106640D03*
X72390Y111640D03*
X59690Y111640D03*
X59690Y106640D03*
X59690Y101640D03*
X59690Y96640D03*
X72390Y73780D03*
X72390Y78780D03*
X72390Y83780D03*
X72390Y88780D03*
X59690Y88780D03*
X59690Y83780D03*
X59690Y78780D03*
X59690Y73780D03*
X72390Y50920D03*
X72390Y55920D03*
X72390Y60920D03*
X72390Y65920D03*
X59690Y65920D03*
X59690Y60920D03*
X59690Y55920D03*
X59690Y50920D03*
X72390Y28060D03*
X72390Y33060D03*
X72390Y38060D03*
X72390Y43060D03*
X59690Y43060D03*
X59690Y38060D03*
X59690Y33060D03*
X59690Y28060D03*
D11*
X89535Y-7375D03*
X89535Y-24375D03*
D17*
X354965Y-2540D03*
M02*
